<svg width="375" height="327" viewBox="0 0 375 327" fill="none" xmlns="http://www.w3.org/2000/svg">
<path d="M101 1C107.787 2.40856 113.914 4.65444 120 8C140.382 32.5697 140.383 32.5697 146.545 64.8672C146.7 65.5923 146.85 66.2962 147 67H149V71C150.626 75.5744 151.276 79.1196 151 84C150.334 87.1659 150.334 87.1659 147.715 88.168L144.938 89.1875L142.152 90.2305L140 91C138.922 100.854 138.529 110.675 131 118C125.239 120.765 120.577 121.305 114.219 121.215C112.133 121.154 110.047 121.102 107.961 121.059L104.945 121.008C103.297 120.963 101.648 120.951 100 121C97.75 122.125 97.75 122.125 95 127C105.12 133.621 111.311 142.44 116.457 153.285C121.773 165.612 124.436 177.978 119.688 190.812C115.682 201.161 113.927 211.36 113.375 222.375C113.279 224.922 113.163 227.456 113 230C111.975 231.246 111.975 231.247 109.795 231.13C108.81 231.131 107.854 231.132 106.898 231.133L103.723 231.137L100.375 231.125C92.9096 231.152 84.4311 232.287 78 228C74.1644 216.009 74.1644 216.009 72.375 203.489C70.7818 193.178 69.5044 182.878 66 173L63.6875 172.375C61 172 61 172 58 174C58.3242 183.79 59.7878 193.049 61.8281 202.605C62.4321 205.379 63.0319 208.154 63.6113 210.933C64.0257 212.924 64.446 214.914 64.8721 216.902L65.5 219.812C66.8134 226.149 67.9384 231.85 72 237C77.3348 240.529 77.3348 240.529 96.2051 240.227C97.7925 240.2 99.3802 240.18 100.968 240.165C104.652 240.137 108.337 240.103 112.021 240.048C113.526 240.024 113.526 240.024 115 240C115 251.949 121.747 264.045 128.9 273.242C129.358 273.82 129.802 274.381 130.246 274.941C131.147 276.096 132.049 277.25 132.951 278.404C133.648 279.287 134.324 280.143 135 281C127.02 281.021 119.039 281.038 111.059 281.049C106.976 281.054 102.893 281.058 98.8096 281.068C94.8249 281.079 90.8402 281.09 86.8555 281.094C85.3256 281.095 83.7955 281.096 82.2656 281.098C72.2124 281.134 60.9299 282.345 51.3115 279.091C40.7167 274.093 35.5874 260.856 31.8125 250.562C30.5526 246.984 29.7389 243.739 27 241L26.875 244.562C26.917 257.913 28.4511 272.312 38.0938 282.281C48.1943 291.388 48.1945 291.388 75.6279 291.181C77.4553 291.167 79.2829 291.157 81.1104 291.15C85.9249 291.139 90.7393 291.123 95.5537 291.096C103.423 291.051 111.292 291.016 119.161 290.991C121.928 290.983 124.696 290.972 127.463 290.955C129.206 290.944 130.949 290.935 132.692 290.928C133.519 290.925 134.321 290.921 135.123 290.918C139.763 290.877 143.791 290.56 147.84 293.199C158.163 300.523 168.601 305.304 181.12 307.346C181.893 307.467 182.644 307.585 183.395 307.703C184.929 307.951 186.464 308.196 188 308.438C193.571 309.187 195.757 309.757 200 314L204 327H0V163H1C6.25042 146.415 15.8976 133.087 31.0625 124.438C38.118 120.434 43.939 116.75 47.3516 109.152C49.0711 103.445 48.5372 97.2794 46.0166 91.9004C42.8736 86.002 39.7957 80.0722 37 74C31.9113 60.6198 32.6202 45.5074 38.25 32.4375C44.1792 20.1814 51.1288 11.9645 64 7C62.7055 12.568 61.5723 18.1161 60.709 23.7676L60.3125 26.4375C59.2639 32.8949 58.9172 38.6725 59.7354 45.1836C59.8254 45.8011 59.9126 46.4007 60 47C57.1793 47 57.1793 47 51 53C46.9997 57.7372 45.9341 61.9263 46 68C46.9711 73.9478 50.7178 77.9827 55 82C60.3666 85.8014 60.3666 85.8014 73.9648 83.543L77 83C77.7076 87.953 78.4019 90.4019 82 94C91.5191 101.915 102.77 104.882 115 104V96C112.899 95.5522 110.799 95.0994 108.703 94.625L106 94C99.6741 92.5704 94.1188 91.014 88.7227 87.3242C84.8902 84.3782 81.6732 81.9462 81 77C81.7638 75.1402 82.527 73.2801 83.2852 71.418C84.9143 65.9074 85.2251 59.475 82.6523 54.2773C79.7969 50.3418 76.5645 48.298 71.8008 47.3906L69 47C69.0991 44.3885 69.2013 41.7772 69.3066 39.166L69.4375 35.9375C69.8469 25.126 69.3807 11.6193 77.5625 3.4375C79.4095 2.34822 81.2158 1.18945 83 0H101V1ZM143.25 169.188C174.428 139.703 220.127 140.763 251.207 170.082C265.524 185.303 274.199 204.707 273.957 225.734C272.806 245.976 265.303 265.013 250.297 278.984L248 281C234.605 293.119 218.567 299.908 200.51 300.471C181.505 300.654 161.988 295.779 148.008 282.117L146 280C131.574 265.274 122.209 248.292 120.75 227.426C120.361 205.32 127.999 185.171 143.25 169.188ZM231.695 174.852C209.502 159.606 179.325 159.492 158.191 176.996C145.38 188.711 137.509 202.85 136.723 220.371C136.415 237.179 140.885 253.067 152.438 265.656C164.977 277.758 180.465 284.327 197.875 284.375C215.858 284.026 231.227 276.278 243.75 263.375C254.774 250.474 259.143 234.734 258 218C255.553 199.985 245.947 185.791 231.695 174.852ZM354.678 239.865C360.108 239.744 364.861 240.062 370 242L375 246V276C369.641 281.359 364.787 282.339 357.466 282.373C356.48 282.362 355.523 282.352 354.566 282.341C351.316 282.342 348.065 282.339 344.814 282.317C342.495 282.301 340.176 282.29 337.856 282.284C331.775 282.276 325.693 282.259 319.611 282.227C313.31 282.193 307.009 282.171 300.708 282.155C287.139 282.123 273.569 282.07 260 282C260.906 280.028 260.906 280.028 262.094 278.582C265.08 274.825 267.817 270.907 270.395 266.858C270.792 266.227 271.177 265.613 271.562 265C274.521 260.529 276.398 256.016 277.975 250.911C278.201 250.164 278.421 249.44 278.641 248.715C279.089 247.257 279.537 245.798 279.985 244.34C280.33 243.204 280.665 242.102 281 241C290.602 240.839 300.204 240.686 309.807 240.547C314.707 240.477 319.607 240.407 324.507 240.326C329.302 240.245 334.098 240.166 338.894 240.1C340.722 240.075 342.55 240.05 344.379 240.023C347.003 239.975 349.627 239.927 352.251 239.894C353.076 239.884 353.877 239.875 354.678 239.865ZM184.194 185.194C188.957 183.344 188.957 183.344 194.244 183.541L197.438 183.562L200.619 183.502L203.684 183.504C206.453 183.406 206.453 183.406 209 184C211.707 186.001 212.842 187.137 213.454 190.474L213.391 193.203L213.352 196.172L213.25 199.25C213.199 202.182 213.147 205.113 213.063 208.044L213 210C215.067 209.862 217.135 209.725 219.203 209.596L221.75 209.438L224.25 209.268L226.672 209.121C230.526 208.873 233.517 208.92 236.721 211.255C238.677 215.746 238.677 215.746 238.508 220.84L238.5 223.875C238.653 229.247 238.931 233.448 236.113 238.145C232.388 240.365 229.729 240.655 225.451 240.795L222.688 240.812C220.044 240.884 217.401 240.954 214.757 240.987C214.16 240.992 213.58 240.996 213 241C213.021 243.219 213.037 245.437 213.049 247.656L213.062 250.375L213.088 253.07L213.098 255.648C213.115 258.262 213.174 259.651 212 262C210.264 264.257 209.438 264.936 206.58 265.356L203.746 265.328L200.658 265.312L197.438 265.25C193.045 265.229 187.996 265.998 184 264C181.723 253.772 181.723 253.772 182.711 243.219L183 240C180.712 240.041 178.423 240.074 176.135 240.098L173.312 240.125C168.044 240.222 162.657 240.864 158 238C156.92 235.189 156.919 235.189 156.87 232.871C156.869 232.044 156.868 231.241 156.867 230.438L156.863 227.773L156.875 225L156.863 222.227L156.867 219.562C156.871 216.619 157.053 214.84 158 212C160.731 209.838 160.731 209.839 163.36 209.773C164.294 209.784 165.2 209.794 166.105 209.805L169.084 209.824L172.188 209.875C175.134 209.901 178.082 209.927 181.028 209.969C181.699 209.98 182.349 209.99 183 210C182.938 207.324 182.889 204.648 182.854 201.971L182.812 198.688L182.736 195.439L182.707 192.324C182.658 189.373 182.558 187.668 184.194 185.194ZM287.309 119.551C290.275 119.588 293.24 119.625 296.206 119.63C302.808 119.629 309.404 119.681 316 120C332.598 121.187 348.355 124.843 359.812 137.938L362 141C368.88 150.36 372.159 158.981 373.703 170.508L374 173H375V221H374C373.247 223.904 372.762 225.651 371 228C358.534 230.819 358.533 230.819 345.497 230.212C343.792 230.201 342.086 230.193 340.381 230.189C335.894 230.184 331.408 230.173 326.921 230.151C322.278 230.129 317.635 230.114 312.992 230.104C302.995 230.082 292.997 230.046 283 230C283.003 229.051 283.002 229.051 283.005 228.12C283.006 227.283 283.008 226.471 283.01 225.658C283.048 207.97 277.841 189.497 267.556 175.005C259.179 164.206 246.958 150.355 232.75 148.062L230 148C231.652 144.471 233.365 141.694 236 138.812C250.983 124.618 267.079 119.429 287.309 119.551ZM271 17C283.519 6.99457 300.361 3.02367 315.172 10.3809L317 11.3125C326.869 16.1519 333.162 22.2871 337.797 32.2031L339 35C341.599 41.0409 343.049 46.7458 343.281 53.3242C343.5 69.6877 341.447 85.2255 329.75 97.625C320.688 106.162 310.307 111.12 297.688 111.375C285.927 110.897 275.27 106.543 267 98C256.275 86.5803 252.388 71.1724 252.828 55.7617L253 53L253.172 50.207C254.481 38.6546 260.154 26.3547 268.949 18.6016L271 17ZM56 58C61.1088 53.8416 67.2266 51.6699 73 56C75.6409 59.5212 76.7256 62.6103 77 67C75.9344 71.4756 73.8733 73.5899 70 76C65.9736 77.0981 63.7265 77.2375 59.75 75.9375C56.3839 73.5659 55.3431 71.88 54 68C53.6239 63.5624 53.5054 61.7418 56 58Z" fill="#D9D9D9"/>
</svg>
