<svg width="375" height="269" viewBox="0 0 375 269" fill="none" xmlns="http://www.w3.org/2000/svg">
<g clip-path="url(#clip0_3_2)">
<path d="M153 135C154.092 141.298 155.295 147.548 156.75 153.772C156.968 154.689 157.179 155.579 157.391 156.469C157.857 158.443 158.325 160.417 158.793 162.391C159.519 165.432 160.244 168.473 160.958 171.518C164.699 187.479 169.002 203.167 174.662 218.565C174.926 219.266 175.182 219.945 175.438 220.625C178.74 229.507 182.322 238.268 186 247L188 246C204.356 215.815 204.357 215.815 220.377 139C220.692 137.485 220.691 137.485 221 136C223.99 135.733 223.99 135.733 226.094 137.32C234.669 143.752 243.671 148.623 253.588 152.677C255.631 153.5 257.671 154.332 259.707 155.172C262.803 156.452 265.901 157.727 269 159C276.171 161.92 283.433 164.66 289.93 168.922C297.442 175.08 301.05 183.273 302.761 192.687C302.911 193.609 303.057 194.504 303.203 195.398C303.548 197.362 303.892 199.325 304.234 201.289C304.742 204.334 305.25 207.377 305.781 210.418C307.687 221.248 311.954 234.706 309.062 245.5C300.72 251.932 300.72 251.932 290.222 254.536C288.532 254.96 288.531 254.96 286.875 255.375C266.068 260.662 245.067 264.906 223.758 267.555L220 268V269H152V268C134.601 265.699 117.487 262.654 100.406 258.601C99.4606 258.375 98.5428 258.156 97.625 257.938C87.0574 255.448 73.92 253.933 65.375 246.812C63.1922 231.498 63.1922 231.498 66.9766 215.725C67.2354 214.171 67.4932 212.617 67.75 211.062C69.0809 202.709 70.4481 194.423 72.8154 186.289C73.0322 185.573 73.2427 184.878 73.4531 184.184C73.8311 182.903 74.2226 181.626 74.6299 180.354C88.386 164.618 88.386 164.618 109 157C120.349 152.199 131.97 147.827 142.25 140.938C145.805 138.443 148.949 136.543 153 135ZM198 146C200.044 151.41 200.044 151.41 200.301 154.887L200.312 157.688C200.439 160.465 200.439 160.465 200 163L197 166C196.494 169.425 196.494 169.425 199 180.125C202.316 193.882 200.625 203.678 195.873 216.783C195.285 218.403 194.703 220.026 194.127 221.65C192.439 226.441 190.731 231.225 189 236H186C183.833 233.833 183.111 231.925 182.097 229.075C181.744 228.049 181.744 228.049 181.398 227.043C180.902 225.605 180.407 224.167 179.914 222.729C179.152 220.471 178.385 218.216 177.59 215.97C173.713 205.024 171.306 195.156 173.875 183.5C174.526 180.916 175.146 178.337 175.719 175.734L176.375 172.25L177.023 169.016C177 166 177 166 175.066 163.281L173 161C173.05 153.588 173.05 153.588 176 146H198ZM316 133C319.415 134.293 322.661 135.8 325.911 137.462C330.566 139.851 335.236 142.193 339.995 144.369C341.601 145.09 341.601 145.09 343.176 145.797C345.325 146.763 347.474 147.726 349.625 148.688C354.818 150.96 360.09 153.025 364.574 156.555C372.627 172.002 372.627 172.003 373.788 190.155C373.86 190.782 373.93 191.391 374 192H375V205C370 206 370 206 367.066 206.98C358.391 209.969 349.621 212.049 340.629 213.851C339.948 213.986 339.286 214.118 338.625 214.25C330.437 215.897 322.337 217.392 314 218C313.696 216.019 313.392 214.037 313.085 212.057C312.95 211.187 312.819 210.344 312.688 209.5C312.027 205.233 311.377 200.965 310.563 196.724C310.417 196.001 310.275 195.299 310.133 194.598C309.862 193.252 309.589 191.907 309.312 190.562C307.047 179.98 307.787 170.55 310.439 160.076C312.494 152.327 314.837 144.592 315.723 136.605L316 133ZM58 132C58.5675 140.144 58.5675 140.144 63.0625 156.5C65.628 165.748 68.2746 174.256 66.4492 183.914C63.9055 192.967 63.9052 192.967 61.2275 215.095C61.1501 215.742 61.0752 216.371 61 217C58.8258 217.683 57.1969 218.02 54.916 217.785C54.1511 217.621 53.4084 217.463 52.666 217.304C51.792 217.121 50.9431 216.944 50.0947 216.767C49.1567 216.562 48.2463 216.363 47.3359 216.164C44.3727 215.542 41.4099 214.919 38.4492 214.285C35.4084 213.632 32.3664 212.983 29.3242 212.336C27.3698 211.925 25.4153 211.513 23.4609 211.102C17.2516 209.755 11.1529 208.706 4.81934 208.145C4.20078 208.095 3.60038 208.048 3 208V206L0 205V187H1C1.62935 182.277 2.39279 177.599 3.31445 172.924L3.8125 170.438C4.40512 167.239 5.06899 164.118 6 161C10.9605 153.919 10.9605 153.919 19.2383 150.562L22.75 149.125C26.0856 147.712 29.4209 146.3 32.7686 144.915C33.5272 144.604 34.2636 144.302 35 144V142C37.9999 142 38.0002 142 39.9443 141.122C40.6433 140.741 41.3216 140.37 42 140L58 132ZM281.5 144.316C284.451 141.582 286.053 141.55 289.99 141.867L292.188 142.125C294.817 142.346 297.384 142.628 300 143C301.954 146.654 301.954 146.654 302 151C299.735 153.723 299.01 154.571 298.926 158.234L299.312 161.75L299.676 165.297L300 168H298C290.544 163.638 282.914 158.138 279.812 149.812C279.805 146.899 279.805 146.899 281.5 144.316ZM74 143C80.1722 142.071 87.9429 140.406 93.0625 144.75C94.3191 147.766 94.1659 148.94 93 152C88.314 158.736 81.75 164.217 74 167C74.9833 162.944 75.236 159.169 75 155L73 153C71.6993 148.989 72.1756 146.756 74 143ZM108 132C110.977 131.712 110.977 131.712 112.891 133.332C115 135 115 135 117.359 136.387L119.75 137.688L122.172 139.012L124 140V144C116.822 147.811 109.895 151.009 102 153C101.91 150.98 101.91 150.98 102.551 149.029C102.81 148.22 103.061 147.434 103.312 146.648L104.133 144.07L105 141.375C105.997 138.249 106.995 135.124 108 132ZM266 131C268.131 137.966 270.114 144.964 272 152C267.708 152.446 264.483 151.269 260.566 149.707L258.25 148.75L255.887 147.84L253.641 146.922C251.599 146.184 251.599 146.184 250 145C249.223 142.95 249.223 142.95 249 141C252.695 139.108 256.504 137.347 259.605 134.555C260.72 133.354 261.858 132.175 263 131H266ZM53 48C64.2579 35.0472 83.1772 29.9203 99 38V40C102.091 41.0117 104.204 42.1588 106.789 44.1719L109.625 46.75C114.222 50.8561 117.595 54.5162 118.328 60.8242L118.25 63.6875C118.162 67.8547 117.801 71.9252 117.312 76.0625L116.926 78.7227C117 81 117 81 118.457 82.4844L120 84C121.068 90.4791 120.337 97.2846 117 103C114.132 105.868 112.211 107.356 110.938 111.25L110 115C106.98 123.64 102.37 130.396 94.3125 135C87.1994 138.189 79.6357 138.291 72.3125 135.625C64.0524 131.315 59.2296 124.169 55.75 115.75C54.5544 112.677 53.5786 109.791 51.6289 107.125C50.3624 105.802 49.1787 104.402 48 103C44.8993 96.3078 44.0322 89.1739 46 82L49 80C47.7653 69.1158 46.5985 57.5345 53 48ZM262.625 46.375C276.782 31.2145 297.517 30.4529 313.484 42.9531L316 45C319.721 47.7974 322.459 50.0975 324.875 54.125C327.841 62.5423 327.333 70.6299 324.691 79.0156L324 81H326C327.774 83.0908 327.774 83.0908 329 86C329.544 93.6221 328.152 98.7122 324 105C322.659 105.651 321.324 106.315 320 107L319.562 109.438L319 113C315.548 122.393 311.008 130.136 302 135C295.234 137.408 287.612 137.971 280.852 135.082C272.404 130.145 267.741 122.92 264.938 113.688C263.812 109.98 263.452 108.395 260.5 105.812C257.29 103.486 256.21 101.206 254.719 97.5859C253.382 92.7783 252.712 86.5767 255 82L257.062 81.375L259 81C258.113 78.2828 257.468 75.8141 257 73C256.33 62.903 256.221 54.5934 262.625 46.375ZM203 0L206 2C208.046 3.2622 210.044 4.60288 212 6C213.932 8.62136 215.54 10.7038 218.293 12.4766C221.984 14.6028 225.552 16.6567 228.938 19.25C235.495 27.9939 234.773 39.3708 233.562 49.75C232.88 53.692 232.88 53.692 232 63L235 64C237.06 67.3026 237.747 70.4731 238.082 74.3086C237.845 82.095 235.355 89.0325 230 94.6875C227.116 97.614 225.33 99.9611 223.875 103.812C220.897 112.161 217.624 120.456 210.898 126.477L209 128C206.133 130.336 203.287 132.297 200 134C190.634 137.731 181.95 137.515 172.496 134.094C161.656 128.815 156.68 120.035 152.375 109.312C150.342 103.846 148.644 99.2745 144.41 95.1406C143.27 94.0978 142.133 93.0514 141 92C135.485 84.6186 135.156 76.9678 136 68C136.911 65.7473 136.911 65.7473 139.562 64.375L142 63C141.285 57.761 140.764 52.5508 140.459 47.2715L140.312 44.5625C139.849 37.6812 139.993 31.6395 142 25C146.133 13.8242 152.615 8.23562 163.23 3.26172C165.51 2.2233 167.76 1.12017 170 0H203Z" fill="#D9D9D9"/>
</g>
<defs>
<clipPath id="clip0_3_2">
<rect width="375" height="269" fill="white"/>
</clipPath>
</defs>
</svg>
