<svg width="375" height="347" viewBox="0 0 375 347" fill="none" xmlns="http://www.w3.org/2000/svg">
<g clip-path="url(#clip0_3_19)">
<path d="M200 1V4C203.868 7.86762 205.196 12.2793 205.312 17.625C205.127 22.3711 204.38 25.5767 201 29.0625C199.038 30.9628 198.066 32.5138 197 35C198.919 36.6612 199.958 37.9004 200.949 40.2617L201.688 42.6875L202.449 45.1367L203 47C220.999 41.071 236.735 43.605 253.562 51.3125C268.147 58.0199 281.941 62.731 298 64L299.188 60.25C299.804 58.0801 299.804 58.0801 301 56C303.906 52.9252 305.277 52.035 309.551 51.8281L313.312 52.25C315.544 52.4793 317.774 52.7229 320 53V55H322C324.672 60.701 325.613 65.7029 324 71.75C322.069 74.8877 321.418 75.5972 318.375 77.25C315 79 315 79 314 82H316C316 85.9999 316 85.9999 316.618 87.9648C316.933 88.7112 317.238 89.4358 317.543 90.1602C317.922 91.0701 318.29 91.9537 318.658 92.8369C319.365 94.5019 320.07 96.1671 320.768 97.8359C322.596 102.227 324.436 106.613 326.283 110.996C326.633 111.826 326.973 112.632 327.312 113.438C331.236 122.757 335.167 132.073 339.152 141.366C339.669 142.57 339.669 142.57 340.176 143.75C341.798 147.527 343.42 151.305 345.05 155.079C350.244 167.103 355.168 179.214 359.875 191.438L362 197L375 196V204H374C370.116 212.366 365.703 218.629 358.75 224.75C356.269 226.84 354.317 228.447 352.703 231.266L352 233C348 233 348 233 346.062 233.918C341.065 236.994 335.957 239.651 330.52 241.863C308.922 248.839 286.569 246.446 266.238 236.723C249.819 227.988 237.654 213.642 232 196H246C253.183 180.391 259.855 164.582 266.453 148.721C267.833 145.402 269.215 142.083 270.598 138.766C271.399 136.844 272.199 134.922 273 133C275.204 127.696 277.41 122.393 279.645 117.102C280.823 114.312 282.001 111.523 283.178 108.732C283.764 107.342 284.351 105.952 284.938 104.562C288.237 96.7909 291.48 89.068 294 81L291.324 80.8516L287.688 80.625C278.079 80.0542 269.022 78.1221 259.803 75.3848C242.599 70.2559 227.18 67.1451 210.408 75.6641L208.562 76.625C206.372 77.7438 204.184 78.8672 202 80C201.051 133.884 200.251 187.799 201.374 241.687C201.396 242.686 201.417 243.655 201.438 244.625C201.494 247.367 201.552 250.109 201.62 252.851C201.642 253.68 201.663 254.484 201.684 255.289C201.767 259.045 201.799 262.397 203 266C207.298 273.289 208.435 279.467 208.625 287.812C208.646 293.836 208.354 298.875 212 304C215.812 304.75 215.813 304.75 217.941 304.895C219.718 304.986 221.487 305.2 223.25 305.438C226.729 307.936 226.729 307.936 228.188 312.062C229.043 314.785 229.043 314.785 230 317C233 318 233 318 235.448 318.189C236.429 318.221 237.38 318.251 238.332 318.281L241.502 318.395C243.697 318.464 245.893 318.535 248.088 318.605L251.27 318.719C255.266 318.846 259.065 319.281 263 320V322H265C265.545 323.634 266.077 325.273 266.547 326.93C267.68 332.108 267.664 337.307 265 342L260 347H115C110.932 345.459 110.932 345.459 109.75 342.562C107.9 333.774 108.679 327.782 113 320C115.223 319.9 117.447 319.798 119.67 319.693L122.438 319.562C126.817 319.366 131.191 319.132 135.563 318.812C136.383 318.736 137.178 318.663 137.973 318.59C140.11 318.394 140.11 318.394 142 318C145 316 145 316 145.887 313.906C146.723 311.392 147.589 309.246 149 307C151.024 305.929 152.717 305.587 154.973 305.238C157.91 304.893 160.316 304.248 163 303C166.388 298.06 166.388 298.06 166.5 285.938C166.544 281.127 166.201 276.632 168.344 272.254C171.781 267.576 173.331 263.168 173.396 257.373C173.389 256.671 173.381 255.988 173.374 255.307C173.387 252.938 173.395 250.57 173.385 248.201C173.377 246.469 173.374 244.737 173.376 243.005C173.389 238.28 173.391 233.556 173.378 228.831C173.364 223.81 173.361 218.789 173.363 213.769C173.367 205.362 173.36 196.956 173.343 188.55C173.321 178.758 173.309 168.965 173.315 159.173C173.321 149.679 173.322 140.186 173.311 130.692C173.306 126.669 173.301 122.646 173.302 118.623C173.304 113.803 173.303 108.982 173.29 104.162C173.284 102.39 173.279 100.617 173.274 98.8447C173.278 96.3691 173.283 93.8936 173.272 91.418C173.269 90.659 173.265 89.9221 173.261 89.1855C173.283 85.0718 173.377 82.5655 171 79C163.009 73.0184 153.915 70.8376 144.079 70.6299L141.75 70.625C133.175 70.6058 125.277 72.27 117.082 74.7266C106.371 77.9799 96.6555 80.8554 85.4023 80.2461L83 80C81.8864 82.7682 81.9974 83.9921 82.8857 86.8926C83.3774 88.0566 83.8548 89.1866 84.332 90.3164C85.1736 92.3376 86.0181 94.3571 86.877 96.3711C87.5058 97.8446 88.1311 99.32 88.752 100.797C90.0824 103.974 91.4146 107.151 92.7559 110.323C94.9522 115.512 97.134 120.706 99.2998 125.907C109.05 149.336 118.955 172.696 129 196H144C136.473 216.152 124.146 229.111 104.875 238.688C86.3692 246.537 62.576 248.841 43.5 241.688L40 240C32.2654 236.441 24.6161 232.402 18.4023 226.477C16.5176 224.482 15.3193 223.112 12.6875 222.188L11 222V219C9.76437 217.147 8.5426 215.284 7.34375 213.406C5.22346 210.064 3.11218 206.719 0.936523 203.414L0 202V196L13 197C13.9375 194.881 14.8725 192.762 15.7949 190.637L16.9375 188C19.0838 183.174 21.0943 178.652 21.7539 173.375L22 170H24C25.0576 167.629 26.1079 165.255 27.1504 162.877L28.4375 159.938C30.6428 154.997 33.0141 150.213 33.7852 144.816L34 142H36C36.2688 141.355 36.5301 140.729 36.791 140.103C37.189 139.147 37.5747 138.22 37.9609 137.293C39.2891 134.104 40.6174 130.916 41.9482 127.729C43.7462 123.423 45.5428 119.118 47.3359 114.811C48.0987 112.978 48.8617 111.145 49.625 109.312C50.7747 106.562 51.9241 103.811 53.0693 101.059C53.6221 99.729 53.6222 99.729 54.1641 98.4258C56.7083 92.3562 59.0026 86.2725 61 80L57.6875 78.3125C55.7652 77.3996 55.7652 77.3996 54 76C51.8891 73.2207 51.0479 71.4439 50.6719 67.957L50.75 64.8125C50.7942 61.8243 50.6617 59.6766 52 57C54.7469 54.3686 56.6122 53.0964 60.332 52.1719L63.8125 51.75C65.8731 51.4847 67.9351 51.2298 70 51V53H72C72 56.9374 74.3075 60.2575 77 63C79.4144 63.6453 81.2673 63.5728 83.75 63.3359L86 63C98.7855 61.8162 98.7855 61.8162 124 50V48C128 48 128 48 130.25 47.1172C143.793 41.6152 156.533 43.2124 170.358 46.585C170.917 46.726 171.458 46.8632 172 47L172.836 43.1797C173.592 39.7236 174.083 38.9093 176.625 36.125L179 34V32C174.97 28.9501 172.676 26.8506 171 22C170.471 16.3067 170.413 12.1749 173 7L179 0H196L200 1ZM70 97C68.4381 100.646 66.8751 104.292 65.3086 107.937C60.2982 119.592 55.2999 131.253 50.3154 142.92C49.8682 143.967 49.4341 144.984 49 146C46.3259 152.261 43.6548 158.523 40.9941 164.789C40.1423 166.797 39.29 168.805 38.4375 170.812C37.2052 173.701 35.9733 176.591 34.748 179.482C34.365 180.388 33.9929 181.266 33.6211 182.145C33.2571 182.995 32.9041 183.82 32.5508 184.646C32.2182 185.435 31.8951 186.201 31.5723 186.968C30.2431 190.097 29.6943 192.529 29 196L113 197L114 195C113.442 193.438 112.866 191.88 112.209 190.356C111.915 189.696 111.629 189.055 111.344 188.414C110.735 187.012 110.126 185.611 109.517 184.209C107.797 180.3 106.09 176.386 104.391 172.468C104.028 171.631 103.676 170.82 103.324 170.008C99.8655 162.047 96.5005 154.051 93.1836 146.03C86.3822 129.565 79.3484 113.23 72 97H70ZM304 96C301.414 101.055 299.003 106.145 296.753 111.358C296.369 112.257 295.997 113.128 295.625 114C292.845 120.488 290.174 126.995 287.75 133.625C286.581 136.893 285.403 140.101 283.985 143.269C280.625 150.559 277.467 157.917 274.375 165.324C273.372 167.732 272.369 170.14 271.36 172.545C270.692 174.139 270.024 175.734 269.358 177.329C269.032 178.112 268.715 178.873 268.398 179.633C265.99 185.362 263.973 191.081 262 197H347C347 194.769 347 194.769 344.97 189.865C344.661 189.131 344.362 188.419 344.062 187.707C343.068 185.317 342.071 182.929 341.069 180.542C340.706 179.678 340.353 178.839 340 178C337.011 170.891 334.008 163.788 331 156.688C326.494 146.048 321.982 135.412 317.579 124.729C317.211 123.835 316.854 122.966 316.496 122.098C314.818 118.031 313.137 113.965 311.477 109.891C310.871 108.405 310.263 106.921 309.652 105.438C309.365 104.742 309.087 104.066 308.809 103.391C307.5 100.188 307.138 97.5692 304 96Z" fill="#D9D9D9"/>
</g>
<defs>
<clipPath id="clip0_3_19">
<rect width="375" height="347" fill="white"/>
</clipPath>
</defs>
</svg>
