<svg width="375" height="631" viewBox="0 0 375 631" fill="none" xmlns="http://www.w3.org/2000/svg">
<g clip-path="url(#clip0_3_105)">
<path d="M338 0V1L349 3V5L350.793 6.55078C360.333 13.5694 368.054 21.3942 371.812 32.9375C372.656 35.9654 373.545 38.0898 375 41V588H374C372.174 594.69 370.511 601.338 366.535 607.102C357.692 618.037 347.035 626.094 332.986 628.33L330.562 628.688C328.939 628.942 327.315 629.196 325.691 629.449L322 630V631H51V630H41V628L38.5625 627.75C27.944 625.515 18.9292 619.34 12.5625 610.562C11.2539 608.566 11.2539 608.566 10 607L7 606V603C4.3781 598.948 3.2718 595.477 2.33203 590.793L2 589H0V50H1C1.38889 43.1945 1.46622 36.3948 4 30C10.0889 18.2125 18.4849 8.45289 30.9375 3.1875C34 2 34 2 37 0H338ZM207.105 545.32C197.11 539.052 184.634 537.442 173.973 543.07C166.566 547.456 161.276 552.513 159 561C158.131 571.401 159.654 579.652 166.5 587.781C172.497 593.433 180.252 596.204 188.438 596.312C196.525 596.059 204.763 592.83 210.375 586.875C215.929 579.601 217.98 571.016 217 562C215.62 555.254 212.566 549.582 207.105 545.32ZM40.5723 85.9287C37.1797 85.7206 35.1122 85.9604 31.8857 87.0986C29.0006 88.9997 29.0004 89.0001 28.2002 91.999C28.1775 93.2454 28.1549 94.4553 28.1328 95.665C28.0716 97.7413 28.0202 99.8144 28.0078 101.892C28.0053 102.608 28.0025 103.304 28 104C27.9142 108.708 27.8622 113.414 27.8691 118.123C27.8716 119.651 27.8722 121.179 27.8711 122.707C27.8658 126.956 27.8642 131.204 27.8672 135.453C27.8705 140.085 27.8698 144.717 27.8672 149.349C27.8619 158.437 27.8605 167.525 27.8633 176.613C27.8656 184.065 27.8671 191.516 27.8662 198.968C27.8661 200.06 27.8664 201.121 27.8662 202.182C27.8659 204.337 27.8656 206.493 27.8652 208.648C27.8622 228.84 27.8648 249.033 27.8701 269.225C27.8747 286.588 27.8746 303.951 27.8701 321.314C27.8647 341.576 27.8624 361.839 27.8652 382.101C27.8656 384.264 27.8649 386.428 27.8652 388.592C27.8654 389.689 27.8661 390.754 27.8662 391.818C27.8673 399.284 27.8665 406.75 27.8643 414.216C27.8614 423.397 27.8608 432.578 27.8652 441.759C27.868 446.454 27.8714 451.15 27.8691 455.846C27.866 460.184 27.864 464.521 27.8682 468.859C27.8701 470.454 27.8719 472.049 27.873 473.644C27.8562 484.14 28.1714 494.535 29 505C31.8929 505.534 34.7029 505.986 37.6436 506.125C39.0159 506.125 39.0161 506.126 40.3613 506.126C41.436 506.129 42.4794 506.131 43.5225 506.134C44.6914 506.131 45.8264 506.129 46.9609 506.127C50.849 506.132 54.737 506.136 58.625 506.133C62.2125 506.13 65.8001 506.13 69.3877 506.133C76.4206 506.138 83.4535 506.14 90.4863 506.137C96.26 506.134 102.034 506.133 107.808 506.134C108.652 506.134 109.471 506.134 110.291 506.134C111.957 506.134 113.623 506.134 115.289 506.135C130.915 506.138 146.542 506.136 162.168 506.131C175.613 506.126 189.059 506.125 202.504 506.13C218.176 506.135 233.849 506.139 249.521 506.136C251.195 506.135 252.869 506.135 254.543 506.135C255.804 506.135 255.804 506.134 257.04 506.134C262.819 506.133 268.597 506.133 274.376 506.136C281.487 506.139 288.597 506.139 295.708 506.135C299.344 506.132 302.981 506.129 306.617 506.131C309.978 506.134 313.34 506.135 316.701 506.132C318.571 506.129 318.571 506.129 320.404 506.127C325.647 506.137 330.878 506.061 336.118 505.909C337.132 505.852 338.116 505.797 339.1 505.742C341.743 505.605 341.744 505.605 344 505C346.04 502.828 346.907 501.592 347.372 498.64C347.371 497.733 347.369 496.853 347.367 495.974C347.376 494.42 347.376 494.42 347.385 492.896C347.375 491.753 347.366 490.643 347.356 489.533C347.363 485.78 347.365 482.027 347.348 478.274C347.33 474.852 347.324 471.43 347.323 468.008C347.322 462.201 347.312 456.394 347.29 450.588C347.262 443.241 347.244 435.894 347.239 428.547C347.224 404.555 347.208 380.562 346.763 356.574C346.75 355.889 346.737 355.224 346.725 354.56C346.606 348.217 346.487 341.875 346.338 335.533C346.283 333.246 346.231 330.959 346.182 328.672C346.158 327.571 346.135 326.502 346.112 325.433C345.924 318.715 346.017 312.05 346.343 305.339C346.879 294.567 347.152 283.832 347.159 273.047C347.16 271.174 347.164 269.302 347.168 267.43C347.182 262.278 347.192 257.125 347.197 251.973C347.2 248.723 347.203 245.473 347.207 242.223C347.221 232.02 347.233 221.816 347.237 211.613C347.242 199.806 347.253 187.998 347.281 176.19C347.304 166.944 347.319 157.698 347.322 148.451C347.323 142.956 347.322 137.462 347.337 131.967C347.354 126.732 347.367 121.497 347.362 116.263C347.359 114.337 347.357 112.412 347.356 110.486C347.371 107.803 347.384 105.12 347.377 102.437C347.372 101.21 347.372 101.21 347.367 100.008C347.409 96.186 347.215 92.7404 346.141 89.0371C343.398 86.4273 343.398 86.427 336.543 86.3594C335.469 86.3751 334.425 86.39 333.383 86.4053C329.832 86.3938 326.282 86.3901 322.73 86.417C319.449 86.443 316.168 86.4534 312.887 86.4521C307.198 86.4491 301.508 86.4608 295.819 86.4902C287.482 86.5354 279.144 86.5604 270.807 86.5703C257.249 86.5854 243.691 86.617 230.134 86.668C216.985 86.7179 203.835 86.7638 190.687 86.7949C189.856 86.7969 189.051 86.7989 188.245 86.8008C179.395 86.8214 170.543 86.8408 161.692 86.8584C159.324 86.8631 156.956 86.8673 154.588 86.8721C153.023 86.8752 151.458 86.8787 149.894 86.8818C140.028 86.901 130.162 86.9244 120.297 86.9609C113.898 86.9847 107.5 87.0059 101.102 87.0234C99.7462 87.0271 98.3905 87.0304 97.0352 87.0342C84.5226 87.0737 72.0076 87.1784 59.5 86.7686C58.6316 86.7373 57.7882 86.7071 56.9453 86.6768C53.932 86.5685 50.9194 86.4539 47.9072 86.3174C46.5869 86.2421 45.3049 86.1687 44.0234 86.0957C42.281 86.0111 42.2802 86.0116 40.5723 85.9287ZM73 357C84.5923 346.468 127.848 322.329 143.281 332.504C153.142 341.653 165.71 347.77 179 350C197.594 351.613 213.346 348.083 228.27 336.391C231.936 333.444 234.55 331.164 239.312 330.625C261.732 332.905 292.957 342.614 308.109 360.488L310 363C318.705 374.062 322.6 386.567 325.93 400.066C328.853 412.813 332.555 431.072 325.25 442.812C320.436 447.492 315.964 448.345 309.491 448.392C308.478 448.383 307.494 448.375 306.511 448.367C303.132 448.378 299.754 448.384 296.376 448.371C293.899 448.361 291.421 448.357 288.943 448.357C282.198 448.366 275.452 448.365 268.707 448.348C261.534 448.33 254.361 448.324 247.188 448.323C234.411 448.322 221.635 448.309 208.859 448.285C196.416 448.262 183.972 448.245 171.528 448.241C170.737 448.241 169.97 448.24 169.202 448.24C167.654 448.24 166.106 448.24 164.559 448.239C163.772 448.239 163.008 448.238 162.244 448.238C161.459 448.238 160.697 448.238 159.935 448.237C148.026 448.234 136.118 448.224 124.209 448.212C119.908 448.207 115.607 448.203 111.306 448.2C104.417 448.196 97.529 448.189 90.6406 448.176C88.1081 448.17 85.5755 448.166 83.043 448.161C79.5041 448.16 75.9647 448.158 72.4258 448.149C71.3411 448.146 70.2881 448.144 69.2354 448.141C67.7233 448.142 67.7232 448.142 66.2412 448.144C65.3109 448.14 64.4078 448.136 63.5049 448.132C57.7258 448.123 54.1976 447.198 50 443C45.6488 427.249 45.6488 427.249 47.668 410.547L48 408C50.2156 389.7 57.0689 371.704 70.7422 358.98L73 357ZM131 166C146.413 150.01 167.457 139.811 190.051 140.844L192 141C209.049 141.782 225.067 149.09 238 160C249.757 171.305 257.637 184.211 258.625 200.688C258.993 208.36 258.997 214.745 263.875 220.938C264.942 222.272 265.984 223.626 267 225C271.774 233.179 272.37 242.933 270.582 252.156C266.279 265.786 259.235 275.398 247.312 283.188C234.943 290.339 222.935 289.881 209.473 286.805C207.275 286.296 205.075 285.799 202.871 285.32C196.888 284.132 192.002 283.025 186.625 286.562C184.603 289.595 184.539 291.539 184.75 295.113C185.348 299.629 187.598 302.229 191.206 305.022C196.496 307.905 196.497 307.905 217.25 302.062C226.836 299.36 235.973 297.332 246 297V299C236.645 313.177 223.972 326.553 208 333C193.246 338.461 178.51 336.475 164.312 330.25C149.385 322.903 135.927 311.286 130.353 295.123C127.79 287.258 126.053 281.257 119.5 275.75C113.577 270.922 110.577 266.171 108 259C104.154 246.325 104.093 235.038 110 223C113.449 219.187 114.487 216.816 114.909 211.82C115.013 210.24 115.138 208.661 115.28 207.084C115.36 206.257 115.438 205.455 115.516 204.652C116.913 190.23 121.651 177.183 131 166ZM226.775 35.6279C223.85 35.6163 220.925 35.6097 218 35.6221C215.908 35.6321 213.816 35.6372 211.724 35.6377C207.362 35.6346 203 35.6357 198.638 35.6504C192.964 35.6736 187.289 35.6904 181.615 35.6846C177.188 35.6793 172.76 35.6791 168.333 35.6865C166.221 35.6913 164.108 35.6953 161.996 35.6992C158.958 35.6969 155.919 35.6961 152.881 35.71C151.934 35.7152 151.015 35.7205 150.096 35.7256C149.203 35.723 148.337 35.7203 147.471 35.7178C146.649 35.7251 145.851 35.7322 145.054 35.7393C140.636 35.7524 137.949 36.7886 135.188 40.3125C133.782 43.4929 133.809 44.7666 135 48C136.562 49.957 137.434 50.8891 139.92 51.3779C141.036 51.3797 141.036 51.3792 142.13 51.3809C142.995 51.3896 143.835 51.3978 144.675 51.4062C146.08 51.397 146.08 51.3978 147.457 51.3887C150.543 51.4054 153.629 51.4168 156.715 51.4092C158.925 51.4022 161.136 51.3994 163.347 51.4014C167.949 51.4091 172.552 51.4122 177.154 51.4014C183.149 51.3834 189.144 51.3745 195.139 51.3916C199.81 51.4056 204.481 51.4117 209.152 51.4072C211.381 51.4035 213.611 51.4005 215.84 51.3984C219.05 51.4086 222.26 51.4175 225.471 51.4043C226.957 51.3963 226.957 51.3966 228.414 51.3887C230.964 51.4056 233.496 51.3919 236.044 51.2773C238.71 50.8991 240.216 50.0016 242 48C242.467 45.7959 242.467 45.7959 242 40C238.183 36.1834 234.534 35.6495 229.394 35.6045C228.503 35.6124 227.639 35.6203 226.775 35.6279Z" fill="#D9D9D9"/>
</g>
<defs>
<clipPath id="clip0_3_105">
<rect width="375" height="631" fill="white"/>
</clipPath>
</defs>
</svg>
