<svg width="375" height="366" viewBox="0 0 375 366" fill="none" xmlns="http://www.w3.org/2000/svg">
<path d="M74.0001 233C85.5928 222.467 128.848 198.329 144.281 208.504C154.142 217.653 166.71 223.769 180 226C198.594 227.612 214.347 224.083 229.27 212.39C232.936 209.444 235.55 207.164 240.313 206.625C262.732 208.905 293.957 218.613 309.109 236.488L311 239C319.705 250.061 323.6 262.567 326.93 276.066C329.853 288.812 333.555 307.072 326.25 318.812C321.437 323.492 316.964 324.345 310.491 324.392C309.478 324.384 308.494 324.376 307.511 324.368C304.132 324.378 300.754 324.383 297.376 324.371C294.899 324.361 292.42 324.357 289.943 324.358C283.197 324.367 276.452 324.365 269.707 324.348C262.534 324.33 255.361 324.324 248.188 324.323C235.412 324.322 222.636 324.309 209.859 324.286C197.416 324.262 184.972 324.245 172.528 324.241C171.737 324.241 170.969 324.24 170.201 324.24C168.654 324.239 167.106 324.239 165.559 324.239C164.772 324.239 164.007 324.238 163.243 324.238C162.458 324.238 161.697 324.238 160.935 324.238C149.026 324.235 137.118 324.224 125.209 324.212C120.908 324.207 116.607 324.203 112.306 324.2C105.417 324.195 98.5291 324.19 91.6407 324.176C89.1081 324.171 86.5748 324.165 84.0421 324.161C80.5034 324.159 76.9646 324.158 73.4259 324.149C72.3413 324.146 71.2882 324.143 70.2355 324.14C68.7235 324.142 68.7232 324.142 67.2413 324.143C66.3111 324.139 65.4079 324.135 64.505 324.131C58.7259 324.122 55.1977 323.197 51.0001 319C46.649 303.249 46.6489 303.249 48.6681 286.547L49.0001 284C51.2158 265.7 58.0691 247.703 71.7423 234.98L74.0001 233ZM132 41.9996C147.414 26.0101 168.457 15.8105 191.051 16.8434L193 16.9996C210.049 17.782 226.067 25.0892 239 35.9996C250.757 47.3046 258.637 60.2113 259.625 76.6871C259.993 84.3592 259.997 90.7446 264.875 96.9371C265.942 98.2712 266.984 99.6261 268 101C272.774 109.179 273.37 118.932 271.582 128.156C267.28 141.785 260.234 151.398 248.313 159.187C235.943 166.339 223.935 165.881 210.473 162.804C208.276 162.295 206.075 161.799 203.871 161.32C197.888 160.131 193.002 159.025 187.625 162.562C185.603 165.595 185.539 167.539 185.75 171.113C186.349 175.629 188.598 178.229 192.206 181.023C197.496 183.905 197.497 183.905 218.25 178.062C227.836 175.36 236.973 173.332 247 173V175C237.645 189.177 224.972 202.552 209 209C194.246 214.461 179.51 212.475 165.313 206.25C150.385 198.902 136.927 187.286 131.353 171.123C128.79 163.258 127.054 157.257 120.5 151.75C114.578 146.922 111.577 142.171 109 135C105.154 122.325 105.094 111.038 111 98.9996C114.449 95.1865 115.487 92.816 115.909 87.8209C116.014 86.2406 116.138 84.661 116.28 83.0836C116.36 82.257 116.438 81.4543 116.516 80.652C117.913 66.2299 122.651 53.1829 132 41.9996Z" fill="#D9D9D9"/>
</svg>
