<svg width="375" height="397" viewBox="0 0 375 397" fill="none" xmlns="http://www.w3.org/2000/svg">
<g clip-path="url(#clip0_3_14)">
<path d="M40.75 213.75C62.5092 199.96 88.9921 194.946 114.363 200.316L117 201C141.974 207.251 162.911 222.483 177 244C190.468 266.183 195.745 294.023 189.707 319.477L189 322C185.144 335.894 179.057 348.571 170.75 360.375C155.871 379.265 132.078 392.828 108.281 395.773L106 396V397H79V396C71.5201 394.606 64.129 392.669 57 390C33.2517 379.427 13.9921 360.134 4.5625 335.812C3.23142 332.191 2.14143 329.212 0 326V270H1C7.35925 246.92 21.2422 227.514 40.75 213.75ZM92 237C89.8519 239.148 89.8516 239.149 86.7129 247.372C86.0598 249.239 85.4061 251.107 84.7432 252.971C84.0126 255.021 83.2859 257.072 82.5625 259.125C81.8453 261.186 81.1266 263.245 80.3926 265.3C80.0385 266.288 80.0385 266.289 79.6914 267.258C78.4928 270.841 78.4928 270.841 77 274C74.8938 276.751 73.8328 277.829 70.4258 278.53C69.4404 278.545 68.4837 278.56 67.5273 278.574L64.2988 278.658C55.3139 278.737 45.8596 278.336 37 280C35 282 35 282 34.375 284.688C35.2357 289.249 35.2357 289.249 45.9219 297.164C49.8458 300.062 53.7358 302.99 57.5469 306.035L59.75 308C61.7936 309.611 61.7936 309.611 63 312C64.0943 318.259 62.3645 323.939 60.5117 329.883C58.3484 336.548 55.8147 343.053 55.6562 350.125C56 354 56 354 58 356C62.357 356.272 64.5603 356.021 68.1094 353.504L70.75 351.562C73.4402 349.615 76.1283 347.673 78.7578 345.645C79.9616 344.71 81.1708 343.783 82.3857 342.863C82.9983 342.4 83.5929 341.95 84.1875 341.5C86.9623 339.283 89.5187 337.217 93.1357 336.688C96.8574 336.634 99.4794 336.822 102.445 339.12C110.28 345.612 119.115 355.016 129.5 356.5C132 356 132 356 134 354C134.262 350.397 134.083 347.359 133.266 343.838L132.25 340.656C131.509 338.268 130.759 335.883 130 333.5L128.844 329.871L127.75 326.344C126.28 321.737 125.649 317.847 126 313C128.76 308.839 131.871 306.128 135.962 303.323C142.866 298.696 152.292 293.764 155.188 285.688C155 283 155 283 153 280C149.516 279.492 149.516 279.492 147.361 279.381C146.57 279.355 145.803 279.33 145.035 279.305C142.568 279.187 140.101 279.072 137.633 278.975C135.076 278.876 132.519 278.766 129.963 278.652C128.341 278.578 126.719 278.503 125.098 278.43C121.236 278.283 117.702 278.234 114 277C108.008 264.795 108.008 264.795 104.375 251.5C102.984 246.778 101.577 242.229 99 238C95.375 237.062 95.375 237.062 92 237ZM264 1L267 2C268.729 7.11275 269.275 11.8818 269.322 17.2617L269.312 19.75C269.394 23.9765 269.652 27.6488 267.789 31.5078C266.055 33.1429 266.055 33.1429 263.66 33.7578C259.478 34.3489 255.615 34.6658 252 37C251.062 39.875 251.062 39.875 251 43C252.509 45.7009 253.536 46.8081 256.413 48.002C257.384 48.2432 258.327 48.4768 259.27 48.7109C260.348 48.9911 261.395 49.2632 262.442 49.5352C280.837 54.1201 297.082 60.8434 312.562 71.875C314.961 73.6624 317.022 75.0095 319.777 76.1953L322 77V79C337.111 89.0742 349.124 106.269 357.488 122.062L359 125H361C361 128.231 361.885 130.156 363.235 133.04C366.42 139.806 368.906 146.517 370.812 153.75C371.916 158.077 372.985 161.971 375 166V222H374C370.88 235.087 366.855 248.044 360.625 260C358.857 263.271 357.174 266.298 356.273 269.938L356 272H354L352.879 273.477C338.794 296.464 317.868 315.319 293.871 327.602L291 329C262.863 342.77 229.449 346.501 199 339C198.901 336.849 198.901 336.849 199.84 334.312C201.902 328.088 203.464 322.28 203.922 315.73L204 314C207.134 315.003 210.128 315.133 213.404 315.165C214.123 315.166 214.822 315.167 215.52 315.168C217.033 315.175 218.547 315.181 220.061 315.186C222.419 315.185 224.777 315.187 227.135 315.206C237.44 315.29 247.899 315.309 258 313L259 311L261.312 311.25C279.389 310.024 301.381 294.808 313.418 281.766L315 280C320.214 274.715 324.668 269.235 328.86 263.118C329.418 262.292 329.959 261.49 330.5 260.688C331.045 259.887 331.574 259.11 332.103 258.333C332.61 257.565 333.102 256.82 333.594 256.074C335.16 253.71 335.994 252.026 336.65 249.245C336.827 248.111 336.827 248.111 337 247H339C341.601 240.924 344.363 234.852 346.309 228.527L347 226C349.706 216.236 350.274 206.801 350.309 196.688C350.31 196.008 350.311 195.348 350.312 194.688C350.428 167.347 341.543 143.281 326 121C307.408 95.4387 278.875 78.4217 247.812 73.125C212.436 67.7255 179.072 76.443 150.285 97.2617C124.413 116.948 108.303 145.523 103.798 177.579C103.551 179.389 103.278 181.195 103 183C101.948 184.257 101.948 184.257 99.5918 184.297C98.5181 184.378 97.4757 184.457 96.4336 184.535L93.0254 184.799L89.4375 185.062C85.292 185.38 81.1464 185.695 77 186C78.2172 174.487 79.5808 162.933 83.125 151.875C84.314 148.294 85.2921 144.936 85.75 141.188L86 138H88C88.8557 134.643 89.6482 131.61 91.3867 128.598L93 126C100.452 112.594 109.234 98.4877 121 88.4375C124 86 124 86 125.508 84.457C141.171 67.924 163.677 55.8752 185.75 50.6875C189.569 49.8686 193.211 49.0145 196.828 47.5469C200.4 45.8051 201.565 44.6772 203 41C202.875 38.8125 202.875 38.8125 202 37C199 35 199 35 196.59 34.6211C193.225 34.3882 190.044 34.5222 187 33C185.315 28.4288 184.762 24.3924 184.775 19.5371L184.812 17.3125C184.816 13.1326 184.58 8.97773 186 5L190 0H264V1ZM291.688 126.062C293.943 126.277 293.943 126.277 296 127C299.659 130.118 301.696 133.45 302.625 138.188C301.853 142.895 300.081 145.374 297.246 149.145C296.082 150.624 294.92 152.104 293.767 153.592C291.494 156.527 289.202 159.447 286.895 162.355C284.528 165.334 282.169 168.319 279.816 171.31C279.348 171.906 278.892 172.484 278.438 173.062C275.787 176.43 273.144 179.801 270.543 183.207C266.543 188.448 262.503 193.639 258.33 198.744C253.758 204.326 249.242 209.936 244.863 215.672C244.294 216.421 243.74 217.148 243.188 217.875C241.124 220.583 239.061 223.291 237 226C231.627 233.08 226.212 241.498 217.312 244.062C213.077 243.983 210.306 243.061 207.003 240.377C206.341 239.714 205.698 239.071 205.056 238.428C203.927 237.308 203.926 237.308 202.819 236.211C201.62 234.998 201.62 234.998 200.445 233.809C198.761 232.125 197.077 230.441 195.395 228.756C192.764 226.1 190.134 223.446 187.489 220.805C185.761 219.08 184.034 217.353 182.311 215.624C181.464 214.773 180.642 213.947 179.82 213.121C174.176 207.484 168.271 201.788 164 195C162.985 191.47 163.15 188.551 164.965 185.238C167.469 181.934 169.96 179.887 174 179C177.55 179.263 179.599 179.716 182.527 181.785L184.938 184.062C187.266 186.217 189.485 188.417 191.586 190.795C195.327 195.119 199.143 199.317 203.156 203.391L205.25 205.5L207.391 207.703L209.453 209.781L211.302 211.658C213 213 213 213 216 213C217.247 211.614 218.48 210.212 219.615 208.734C220.556 207.471 221.506 206.213 222.463 204.961L223.969 202.992C226.329 199.876 228.722 196.789 231.143 193.72C232.054 192.566 232.964 191.41 233.873 190.254C234.568 189.368 234.568 189.368 235.25 188.5L254.5 164C256.796 161.077 259.092 158.154 261.392 155.234C262.096 154.341 262.095 154.341 262.785 153.465C263.711 152.289 264.637 151.113 265.562 149.938C267.853 147.04 270.144 144.144 272.357 141.188C272.815 140.57 273.259 139.97 273.703 139.371C274.574 138.206 275.444 137.041 276.312 135.875L278.613 132.742C281.678 129.221 284.661 126.265 289.449 125.723L291.688 126.062Z" fill="#D9D9D9"/>
</g>
<defs>
<clipPath id="clip0_3_14">
<rect width="375" height="397" fill="white"/>
</clipPath>
</defs>
</svg>
